<svg xmlns="http://www.w3.org/2000/svg" width="16" height="16" fill="currentColor"><path d="M6.752.814c-1.11 0-2.02.909-2.02 2.018v.494H2.71c-1.11 0-2.02.909-2.02 2.018v7.943c0 1.11.91 2.018 2.02 2.018h10.582c1.11 0 2.02-.909 2.02-2.018V5.344c0-1.11-.91-2.018-2.02-2.018h-1.937v-.494c0-1.109-.91-2.018-2.02-2.018zm0 1h2.582c.573 0 1.02.446 1.02 1.018v.494H5.732v-.494c0-.572.447-1.018 1.02-1.018zM2.709 4.326h10.582c.573 0 1.02.446 1.02 1.018v3.24c0 .572-.447 1.018-1.02 1.018H2.709c-.573 0-1.02-.446-1.02-1.018v-3.24c0-.572.447-1.018 1.02-1.018zm4.293 2.285a.755.755 0 00-.746.746v.334c0 .405.341.746.746.746h1.996a.755.755 0 00.746-.746v-.334a.755.755 0 00-.746-.746zm-5.313 3.592c.244.24.52.399.832.399H13.48c.311 0 .588-.16.832-.399v3.084c0 .572-.447 1.018-1.02 1.018H2.709c-.573 0-1.02-.446-1.02-1.018z" style="line-height:normal;font-variant-ligatures:normal;font-variant-position:normal;font-variant-caps:normal;font-variant-numeric:normal;font-variant-alternates:normal;font-variant-east-asian:normal;font-feature-settings:normal;font-variation-settings:normal;text-indent:0;text-align:start;text-decoration-line:none;text-decoration-style:solid;text-decoration-color:#000;text-transform:none;text-orientation:mixed;white-space:normal;shape-padding:0;shape-margin:0;inline-size:0;isolation:auto;mix-blend-mode:normal;solid-color:#000;solid-opacity:1" color="#000" font-weight="400" font-family="sans-serif" overflow="visible" fill="#000" paint-order="markers stroke fill"/></svg>