<?xml version="1.0" encoding="UTF-8" standalone="no"?>
<svg
   xmlns:dc="http://purl.org/dc/elements/1.1/"
   xmlns:cc="http://creativecommons.org/ns#"
   xmlns:rdf="http://www.w3.org/1999/02/22-rdf-syntax-ns#"
   xmlns:svg="http://www.w3.org/2000/svg"
   xmlns="http://www.w3.org/2000/svg"
   xmlns:sodipodi="http://sodipodi.sourceforge.net/DTD/sodipodi-0.dtd"
   xmlns:inkscape="http://www.inkscape.org/namespaces/inkscape"
   inkscape:version="1.0 (4035a4fb49, 2020-05-01)"
   sodipodi:docname="briefcase.svg"
   id="svg4"
   version="1.1"
   fill="currentColor"
   viewBox="0 0 16 16"
   height="16"
   width="16">
  <metadata
     id="metadata10">
    <rdf:RDF>
      <cc:Work
         rdf:about="">
        <dc:format>image/svg+xml</dc:format>
        <dc:type
           rdf:resource="http://purl.org/dc/dcmitype/StillImage" />
      </cc:Work>
    </rdf:RDF>
  </metadata>
  <defs
     id="defs8" />
  <sodipodi:namedview
     inkscape:current-layer="svg4"
     inkscape:window-maximized="1"
     inkscape:window-y="0"
     inkscape:window-x="0"
     inkscape:cy="8.9835208"
     inkscape:cx="7.6444194"
     inkscape:zoom="38.714096"
     showgrid="false"
     id="namedview6"
     inkscape:window-height="1047"
     inkscape:window-width="1863"
     inkscape:pageshadow="2"
     inkscape:pageopacity="0"
     guidetolerance="10"
     gridtolerance="10"
     objecttolerance="10"
     borderopacity="1"
     bordercolor="#666666"
     pagecolor="#ffffff" />
  <path
     sodipodi:nodetypes="ccccccccccccccccccccccccccccccccccccccccccccccc"
     id="path2"
     d="M 14.809965,4.0350529 H 11 v -1.5 l -0.5,-0.5 h -5 l -0.5,0.5 v 1.5 H 1.1900354 l -0.50000002,0.5 v 8.9298941 l 0.50000002,0.5 H 14.809965 l 0.5,-0.5 V 4.5350529 Z M 6,3.0350529 h 4 v 1 H 6 Z m 8.309965,2 V 6.4149821 L 10,8.6549821 v -0.5 l -0.49,-0.5 h -3 l -0.51,0.5 v 0.5 l -4.3099646,-2.29 V 5.0350529 Z M 9,8.6549821 v 1 H 7 v -1 z M 1.6900354,12.964947 V 7.5149821 L 6,9.8049821 v 0.3499999 l 0.5,0.5 h 3 l 0.5,-0.5 V 9.8449821 l 4.309965,-2.28 v 5.3999649 z" />
</svg>
